<svg width="21" height="20" viewBox="0 0 21 20" fill="none" xmlns="http://www.w3.org/2000/svg">
<path d="M10.5 0C7.64561 0 7.28988 0.0131266 6.1728 0.0581323C5.05113 0.110639 4.29241 0.276285 3.62295 0.523815C2.92229 0.775735 2.28775 1.17016 1.76356 1.67958C1.22717 2.17765 0.812799 2.78231 0.550006 3.45043C0.290099 4.08801 0.116171 4.8106 0.0610389 5.87886C0.0105013 6.94337 0 7.28154 0 10C0 12.7185 0.013783 13.0573 0.0610389 14.1211C0.116171 15.1863 0.290099 15.912 0.550006 16.5496C0.814522 17.2169 1.22866 17.8212 1.76356 18.3204C2.28653 18.8313 2.92142 19.2259 3.62295 19.4762C4.29241 19.7206 5.05441 19.8894 6.1728 19.9419C7.29054 19.99 7.64561 20 10.5 20C13.3544 20 13.7101 19.9869 14.8272 19.9419C15.9456 19.8894 16.7076 19.72 17.377 19.4762C18.0777 19.2243 18.7122 18.8298 19.2364 18.3204C19.7735 17.8229 20.188 17.2181 20.45 16.5496C20.7066 15.912 20.8838 15.1863 20.939 14.1211C20.9895 13.0566 21 12.7185 21 10C21 7.28154 20.9862 6.94274 20.939 5.87886C20.8838 4.81373 20.706 4.08426 20.45 3.45043C20.1855 2.78314 19.7713 2.17881 19.2364 1.67958C18.714 1.16808 18.079 0.773334 17.377 0.523815C16.7076 0.276285 15.9456 0.110639 14.8272 0.0581323C13.7095 0.0100013 13.3544 0 10.5 0ZM10.5 1.80023C13.3032 1.80023 13.6379 1.81335 14.7458 1.85836C15.7677 1.90399 16.3243 2.06651 16.6938 2.20403C17.1506 2.36462 17.5641 2.62023 17.9041 2.95224C18.2521 3.27468 18.5195 3.66755 18.6864 4.10176C18.8308 4.45368 19.0015 4.98375 19.0494 5.95699C19.0966 7.01213 19.1104 7.33154 19.1104 10.0006C19.1104 12.6697 19.0966 12.9891 19.0454 14.0443C18.9903 15.0175 18.8197 15.5476 18.6759 15.8995C18.4771 16.3689 18.2552 16.6971 17.889 17.0521C17.5479 17.3821 17.1347 17.6364 16.6787 17.7972C16.3138 17.9347 15.7493 18.0973 14.7235 18.1429C13.6097 18.1879 13.2815 18.201 10.4711 18.201C7.66071 18.201 7.3332 18.1879 6.21809 18.1391C5.19618 18.0866 4.63239 17.9241 4.26288 17.7872C3.76406 17.5978 3.42212 17.3865 3.05588 17.0378C2.68637 16.6858 2.4514 16.3508 2.27025 15.8851C2.12323 15.5376 1.95521 15 1.90074 14.023C1.86333 12.9747 1.84561 12.6497 1.84561 9.98562C1.84561 7.32279 1.86333 6.99712 1.90074 5.93574C1.95521 4.95875 2.12323 4.42243 2.27025 4.07363C2.4514 3.59795 2.68702 3.27291 3.05588 2.92099C3.42146 2.57282 3.76406 2.34779 4.26288 2.17152C4.63239 2.03463 5.1824 1.87211 6.20825 1.82335C7.32204 1.78522 7.65021 1.77147 10.4567 1.77147L10.5 1.80023ZM10.5 4.86748C9.79204 4.86724 9.09097 4.99986 8.43686 5.25777C7.78274 5.51567 7.1884 5.89382 6.6878 6.37058C6.18719 6.84734 5.79015 7.41338 5.51934 8.03635C5.24854 8.65932 5.10929 9.32701 5.10955 10.0013C5.10929 10.6755 5.24854 11.3432 5.51934 11.9661C5.79015 12.5891 6.18719 13.1552 6.6878 13.6319C7.1884 14.1087 7.78274 14.4868 8.43686 14.7447C9.09097 15.0026 9.79204 15.1353 10.5 15.135C11.208 15.1353 11.909 15.0026 12.5631 14.7447C13.2173 14.4868 13.8116 14.1087 14.3122 13.6319C14.8128 13.1552 15.2099 12.5891 15.4807 11.9661C15.7515 11.3432 15.8907 10.6755 15.8905 10.0013C15.8907 9.32701 15.7515 8.65932 15.4807 8.03635C15.2099 7.41338 14.8128 6.84734 14.3122 6.37058C13.8116 5.89382 13.2173 5.51567 12.5631 5.25777C11.909 4.99986 11.208 4.86724 10.5 4.86748V4.86748ZM10.5 13.3348C8.56513 13.3348 6.99978 11.844 6.99978 10.0013C6.99978 8.15852 8.56513 6.66771 10.5 6.66771C12.4349 6.66771 14.0002 8.15852 14.0002 10.0013C14.0002 11.844 12.4349 13.3348 10.5 13.3348ZM17.3679 4.66246C17.3675 4.98104 17.2344 5.28646 16.9977 5.51161C16.7611 5.73676 16.4402 5.86323 16.1057 5.86323C15.9403 5.86323 15.7766 5.83221 15.6237 5.77192C15.4709 5.71164 15.3321 5.62329 15.2151 5.5119C15.0982 5.40051 15.0054 5.26828 14.9421 5.12275C14.8788 4.97721 14.8462 4.82123 14.8462 4.66371C14.8462 4.50618 14.8788 4.3502 14.9421 4.20467C15.0054 4.05914 15.0982 3.9269 15.2151 3.81552C15.3321 3.70413 15.4709 3.61577 15.6237 3.55549C15.7766 3.49521 15.9403 3.46418 16.1057 3.46418C16.7995 3.46418 17.3679 4.00175 17.3679 4.66246V4.66246Z" fill="black"/>
</svg>
