<svg width="878" height="309" viewBox="0 0 878 309" fill="none" xmlns="http://www.w3.org/2000/svg">
<path d="M224.625 279.991C212.117 285.105 199.368 289.61 186.424 293.488C169.643 298.659 152.55 302.753 135.247 305.743C121.342 308.376 107.183 309.418 93.0421 308.849C77.2673 308.012 61.8446 303.867 47.775 296.68C28.8036 287.126 13.9051 271.056 5.80552 251.411C-1.0297 231.207 -1.84804 209.45 3.45009 188.789C10.9327 157.262 24.3795 127.46 43.0641 100.993C55.3338 82.8468 69.1452 65.8147 83.1493 48.9754C96.8536 32.4931 110.744 16.168 124.819 0C115.767 14.9491 108.2 30.7499 102.228 47.1758C97.2434 60.3701 93.8225 74.1039 92.0357 88.0957C89.7778 103.992 91.7118 120.203 97.6459 135.121C105.855 153.273 120.902 167.443 139.508 174.542C152.495 179.25 166.258 181.446 180.065 181.012C201.569 180.151 222.918 176.984 243.747 171.564C267.089 166.187 290.32 160.337 313.425 154.017C454.451 115.626 878 1.56395 878 1.56395C878 1.56395 388.627 211.948 224.625 279.991V279.991Z" fill="#C4C4C4"/>
</svg>
