<svg width="25" height="20" viewBox="0 0 25 20" fill="none" xmlns="http://www.w3.org/2000/svg">
<path d="M25 2.37236C24.0806 2.77326 23.093 3.04414 22.0547 3.16658C23.126 2.53575 23.9275 1.5429 24.3097 0.373289C23.3031 0.961624 22.2016 1.37575 21.0528 1.59766C20.2803 0.78596 19.2571 0.247955 18.142 0.0671694C17.027 -0.113617 15.8825 0.0729309 14.8862 0.59785C13.8899 1.12277 13.0976 1.95669 12.6323 2.97014C12.167 3.98359 12.0547 5.11988 12.3128 6.20257C10.2734 6.1018 8.27824 5.58015 6.45691 4.67147C4.63558 3.76279 3.02876 2.48739 1.74073 0.928046C1.30032 1.67567 1.04708 2.54248 1.04708 3.46563C1.04659 4.29667 1.25455 5.11499 1.65251 5.84798C2.05048 6.58096 2.62614 7.20594 3.32842 7.66748C2.51396 7.64198 1.71747 7.4254 1.00524 7.03579V7.1008C1.00516 8.26638 1.41486 9.39609 2.16483 10.2982C2.91479 11.2004 3.95883 11.8194 5.11979 12.0503C4.36425 12.2515 3.57211 12.2811 2.80322 12.137C3.13078 13.1399 3.76882 14.0169 4.62804 14.6452C5.48725 15.2735 6.52462 15.6217 7.59491 15.641C5.77803 17.0446 3.53418 17.806 1.22435 17.8026C0.815182 17.8027 0.406364 17.7792 0 17.7322C2.34462 19.2157 5.07392 20.003 7.86136 20C17.2972 20 22.4555 12.3092 22.4555 5.63915C22.4555 5.42245 22.45 5.20358 22.4401 4.98687C23.4435 4.27281 24.3096 3.38858 24.9978 2.37562L25 2.37236V2.37236Z" fill="black"/>
</svg>
