<svg width="18" height="22" viewBox="0 0 18 22" fill="none" xmlns="http://www.w3.org/2000/svg">
<path d="M11.4656 15.2723V17.8627C11.4656 18.4111 11.3077 18.6853 10.9919 18.6853C10.8057 18.6853 10.6235 18.5952 10.4453 18.4152V14.7199C10.6235 14.5398 10.8057 14.4498 10.9919 14.4498C11.3077 14.4498 11.4656 14.724 11.4656 15.2723ZM15.5709 15.2846V15.8493H14.4777V15.2846C14.4777 14.7281 14.6599 14.4498 15.0243 14.4498C15.3887 14.4498 15.5709 14.7281 15.5709 15.2846ZM3.83806 12.6083H5.13765V11.4542H1.34818V12.6083H2.62348V19.5937H3.83806V12.6083ZM7.33603 19.5937H8.417V13.529H7.33603V18.1696C7.09312 18.5134 6.86235 18.6853 6.64372 18.6853C6.49798 18.6853 6.41296 18.5993 6.38866 18.4275C6.38057 18.4029 6.37652 18.2597 6.37652 17.9978V13.529H5.29555V18.3292C5.29555 18.7303 5.32794 19.029 5.39271 19.2254C5.48988 19.5283 5.7247 19.6797 6.09717 19.6797C6.48583 19.6797 6.89879 19.4301 7.33603 18.9308V19.5937ZM12.5466 17.7768V15.3583C12.5466 14.7608 12.5101 14.3557 12.4372 14.1429C12.2996 13.6845 12.0121 13.4554 11.5749 13.4554C11.17 13.4554 10.7935 13.6763 10.4453 14.1183V11.4542H9.36437V19.5937H10.4453V19.0045C10.8097 19.4546 11.1862 19.6797 11.5749 19.6797C12.0121 19.6797 12.2996 19.4546 12.4372 19.0045C12.5101 18.7835 12.5466 18.3743 12.5466 17.7768ZM16.6518 17.654V17.4944H15.5466C15.5466 17.9118 15.5385 18.1615 15.5223 18.2433C15.4656 18.5379 15.3036 18.6853 15.0364 18.6853C14.664 18.6853 14.4777 18.4029 14.4777 17.8382V16.7701H16.6518V15.5056C16.6518 14.859 16.5425 14.3843 16.3239 14.0815C16.0081 13.6641 15.5789 13.4554 15.0364 13.4554C14.4858 13.4554 14.0526 13.6641 13.7368 14.0815C13.5101 14.3843 13.3968 14.859 13.3968 15.5056V17.6295C13.3968 18.276 13.5142 18.7507 13.749 19.0536C14.0648 19.471 14.502 19.6797 15.0607 19.6797C15.6437 19.6797 16.081 19.4628 16.3725 19.029C16.5182 18.808 16.6032 18.5871 16.6275 18.3661C16.6437 18.2924 16.6518 18.0551 16.6518 17.654ZM9.26721 6.44531V3.86719C9.26721 3.30246 9.09312 3.02009 8.74494 3.02009C8.39676 3.02009 8.22267 3.30246 8.22267 3.86719V6.44531C8.22267 7.01823 8.39676 7.30469 8.74494 7.30469C9.09312 7.30469 9.26721 7.01823 9.26721 6.44531ZM18 15.6652C18 17.5804 17.8947 19.0126 17.6842 19.9621C17.5709 20.4449 17.336 20.8501 16.9798 21.1775C16.6235 21.5048 16.2105 21.6931 15.7409 21.7422C14.251 21.9141 12.004 22 9 22C5.99595 22 3.74899 21.9141 2.25911 21.7422C1.78947 21.6931 1.37449 21.5048 1.01417 21.1775C0.653846 20.8501 0.421053 20.4449 0.315789 19.9621C0.105263 19.0454 0 17.6131 0 15.6652C0 13.75 0.105263 12.3177 0.315789 11.3683C0.42915 10.8854 0.663968 10.4803 1.02024 10.1529C1.37652 9.82552 1.79352 9.63318 2.27126 9.57589C3.75304 9.4122 5.99595 9.33036 9 9.33036C12.004 9.33036 14.251 9.4122 15.7409 9.57589C16.2105 9.63318 16.6255 9.82552 16.9858 10.1529C17.3462 10.4803 17.5789 10.8854 17.6842 11.3683C17.8947 12.285 18 13.7173 18 15.6652ZM5.87854 0H7.11741L5.64777 4.89844V8.22545H4.4332V4.89844C4.31984 4.29278 4.07287 3.42522 3.69231 2.29576C3.39271 1.45275 3.12955 0.6875 2.90283 0H4.19028L5.05263 3.22879L5.87854 0ZM10.3725 4.08817V6.23661C10.3725 6.89955 10.2591 7.38244 10.0324 7.68527C9.7247 8.10268 9.29555 8.31138 8.74494 8.31138C8.20243 8.31138 7.77733 8.10268 7.46964 7.68527C7.24292 7.37426 7.12955 6.89137 7.12955 6.23661V4.08817C7.12955 3.43341 7.24292 2.95461 7.46964 2.65179C7.77733 2.23437 8.20243 2.02567 8.74494 2.02567C9.29555 2.02567 9.7247 2.23437 10.0324 2.65179C10.2591 2.95461 10.3725 3.43341 10.3725 4.08817ZM14.4413 2.09933V8.22545H13.336V7.55022C12.9069 8.05766 12.4899 8.31138 12.085 8.31138C11.7126 8.31138 11.4737 8.15997 11.3684 7.85714C11.3036 7.66071 11.2713 7.35379 11.2713 6.93638V2.09933H12.3765V6.60491C12.3765 6.875 12.3806 7.01823 12.3887 7.0346C12.413 7.21466 12.498 7.30469 12.6437 7.30469C12.8623 7.30469 13.0931 7.12872 13.336 6.77679V2.09933H14.4413Z" fill="black"/>
</svg>
